<svg width="32" height="32" viewBox="0 0 32 32" fill="none" xmlns="http://www.w3.org/2000/svg">
<path d="M29.8668 2.3999H0.533447V24.7999H29.8668V2.3999Z" fill="#ECF0F1"/>
<path d="M30.4 25.3334H0V1.8667H30.4V25.3334ZM1.06667 24.2667H29.3333V2.93337H1.06667V24.2667Z" fill="#545E73"/>
<path d="M27.7334 4.5332H2.66675V22.6665H27.7334V4.5332Z" fill="#545E73"/>
<path d="M28.2666 23.2H2.1333V4H28.2666V23.2ZM3.19997 22.1333H27.2V5.06667H3.19997V22.1333Z" fill="#ECF0F1"/>
<path d="M8.00003 11.5401C9.34584 11.5401 10.4368 10.4491 10.4368 9.1033C10.4368 7.7575 9.34584 6.6665 8.00003 6.6665C6.65423 6.6665 5.56323 7.7575 5.56323 9.1033C5.56323 10.4491 6.65423 11.5401 8.00003 11.5401Z" fill="#F3D55A"/>
<path d="M27.2001 17.3928L26.6667 16.8003L20.2667 10.9336L14.6667 17.0669L17.591 19.9912L19.7334 22.1336H27.2001V17.3928Z" fill="#11A085"/>
<path d="M3.19995 22.1335H19.7333L17.5909 19.9911L11.7424 14.1426L3.19995 21.6002V22.1335Z" fill="#26B999"/>
<path d="M25.6 30.1335C29.1346 30.1335 32 27.2681 32 23.7335C32 20.1989 29.1346 17.3335 25.6 17.3335C22.0653 17.3335 19.2 20.1989 19.2 23.7335C19.2 27.2681 22.0653 30.1335 25.6 30.1335Z" fill="#166534"/>
<path d="M28.8 23.2H26.1334V20.5333C26.1334 20.2389 25.8944 20 25.6 20C25.3056 20 25.0667 20.2389 25.0667 20.5333V23.2H22.4C22.1056 23.2 21.8667 23.4389 21.8667 23.7333C21.8667 24.0277 22.1056 24.2667 22.4 24.2667H25.0667V26.9333C25.0667 27.2277 25.3056 27.4667 25.6 27.4667C25.8944 27.4667 26.1334 27.2277 26.1334 26.9333V24.2667H28.8C29.0944 24.2667 29.3334 24.0277 29.3334 23.7333C29.3334 23.4389 29.0944 23.2 28.8 23.2Z" fill="white"/>
</svg>
