<svg width="32" height="32" viewBox="0 0 32 32" fill="none" xmlns="http://www.w3.org/2000/svg">
<path d="M16.0001 2.6665C8.77208 2.6665 2.66675 8.77184 2.66675 15.9998C2.66675 23.2278 8.77208 29.3332 16.0001 29.3332C23.2281 29.3332 29.3334 23.2278 29.3334 15.9998C29.3334 8.77184 23.2281 2.6665 16.0001 2.6665ZM16.0001 9.33317C18.3027 9.33317 20.0001 11.0292 20.0001 13.3332C20.0001 15.6372 18.3027 17.3332 16.0001 17.3332C13.6987 17.3332 12.0001 15.6372 12.0001 13.3332C12.0001 11.0292 13.6987 9.33317 16.0001 9.33317ZM9.19208 22.3625C10.3881 20.6025 12.3827 19.4292 14.6667 19.4292H17.3334C19.6187 19.4292 21.6121 20.6025 22.8081 22.3625C21.1041 24.1865 18.6867 25.3332 16.0001 25.3332C13.3134 25.3332 10.8961 24.1865 9.19208 22.3625Z" fill="#EF4444"/>
</svg>
