<svg width="24" height="24" viewBox="0 0 24 24" fill="none" xmlns="http://www.w3.org/2000/svg">
<g clip-path="url(#clip0_53_68)">
<path d="M12 0C18.6278 0 24 5.37303 24 12C24 18.627 18.6277 24 12 24C5.37229 24 0 18.6271 0 12C0 5.37295 5.37229 0 12 0Z" fill="#EFC75E"/>
<path d="M12 2.25C6.61495 2.25 2.25 6.61504 2.25 12C2.25 17.3849 6.61504 21.75 12 21.75C17.3849 21.75 21.75 17.3849 21.75 12C21.75 6.61504 17.385 2.25 12 2.25ZM12 20.25C7.44371 20.25 3.74998 16.5563 3.74998 12C3.74998 7.44371 7.44379 3.74998 12 3.74998C16.5562 3.74998 20.25 7.44371 20.25 12C20.25 16.5563 16.557 20.25 12 20.25ZM12.9975 11.3738C12.5491 11.1855 10.9005 10.9253 10.9005 10.2045C10.9005 9.67282 11.5171 9.519 11.8868 9.519C12.2236 9.519 12.627 9.62552 12.8401 9.83775C12.9751 9.96747 13.0306 10.062 13.0749 10.1925C13.1311 10.3463 13.1648 10.5113 13.3779 10.5113H14.4766C14.7346 10.5113 14.8021 10.4641 14.8021 10.1805C14.8021 8.964 13.8488 8.27854 12.7614 8.0423V7.09723C12.7614 6.88501 12.6938 6.75446 12.4359 6.75446H11.5606C11.3027 6.75446 11.2352 6.88418 11.2352 7.09723V8.00627C10.0689 8.2305 9.09389 8.96326 9.09389 10.2863C9.09389 11.7863 10.1372 12.2588 11.2689 12.6361C12.2222 12.9556 13.2204 12.9669 13.2204 13.6284C13.2204 14.2899 12.7276 14.4316 12.1216 14.4316C11.7062 14.4316 11.2472 14.3244 11.0222 14.0416C10.8767 13.8646 10.8204 13.7109 10.81 13.5571C10.7874 13.2617 10.6644 13.2264 10.4057 13.2264H9.31821C9.06024 13.2264 8.99271 13.2863 8.99271 13.5571C8.99271 14.9034 10.0697 15.7194 11.2352 15.9789V16.9007C11.2352 17.1129 11.3028 17.2435 11.5607 17.2435H12.436C12.6939 17.2435 12.7615 17.113 12.7615 16.9007V16.0037C14.0845 15.8019 14.9927 14.9994 14.9927 13.5819C14.994 11.9761 13.8053 11.6333 12.9975 11.3738Z" fill="#CC9933"/>
</g>
<defs>
<clipPath id="clip0_53_68">
<rect width="24" height="24" fill="white"/>
</clipPath>
</defs>
</svg>
