<svg width="400" height="400" viewBox="0 0 400 400" fill="none" xmlns="http://www.w3.org/2000/svg">
<g clip-path="url(#clip0_172_52)">
<path fill-rule="evenodd" clip-rule="evenodd" d="M183.984 0.430986C62.3049 11.041 -21.3651 124.099 4.52793 242.92C28.1039 351.104 136.466 419.455 245.117 394.674C324.809 376.498 386.519 309.667 398.005 229.102C399.677 217.374 399.805 215.289 399.805 199.805C399.805 184.32 399.677 182.236 398.005 170.508C383.293 67.309 287.75 -8.61701 183.984 0.430986ZM211.523 16.806C325.729 24.372 405.21 132.229 378.328 243.164C358.476 325.089 284.481 383.191 200 383.191C98.8749 383.191 16.4059 300.816 16.4059 199.805C16.4059 94.321 106.474 9.84799 211.523 16.806ZM169.727 84.254C153.591 85.319 136.738 89.864 134.95 93.633C132.513 98.77 135.892 101.423 143.301 100.191C181.538 93.829 213.141 121.801 198.617 149.151C197.667 150.94 193.547 157.132 189.461 162.91C185.374 168.689 182.031 173.572 182.031 173.762C182.031 173.951 185.415 176.454 189.551 179.323C193.687 182.192 201.816 187.873 207.617 191.948C213.418 196.022 218.775 199.775 219.523 200.288C220.27 200.8 220.982 201.381 221.105 201.58C221.228 201.779 222.782 200.109 224.558 197.87C240.524 177.742 261.874 174.672 270.019 191.333L271.793 194.962L272.942 193.282C274.266 191.345 285.145 175.817 290.814 167.773C292.933 164.766 295.395 161.25 296.283 159.961C297.172 158.672 299.602 155.219 301.684 152.288C306.17 145.973 306.051 146.485 303.027 146.481C288.626 146.464 275.431 137.374 267.187 121.791L265.386 118.387L258.377 113.465C228.38 92.403 197.989 82.388 169.727 84.254ZM313.031 149.921C310.401 153.766 301.205 167.109 298.245 171.373C297.169 172.923 293.83 177.757 290.825 182.115C285.346 190.061 283.538 192.675 279.008 199.2C277.667 201.131 276.525 202.873 276.469 203.072C276.413 203.27 277.951 204.55 279.886 205.915C286.731 210.745 286.646 210.702 289.731 210.869C294.801 211.143 296.011 210.148 302.93 200.019C304.863 197.188 306.885 194.28 307.422 193.557C307.959 192.834 310.068 189.824 312.109 186.867C314.15 183.91 318.336 177.891 321.411 173.491C331.34 159.285 331.186 157.394 319.452 149.335L315.355 146.521L313.031 149.921ZM180.044 187.602C179.273 188.728 176.541 192.637 173.973 196.289C171.404 199.941 167.393 205.654 165.059 208.984C162.725 212.314 160.192 215.918 159.43 216.992C158.668 218.066 157.245 220.102 156.268 221.515C151.78 228.01 142.119 241.803 139.648 245.245C138.145 247.339 134.66 252.298 131.906 256.265C129.151 260.231 126.019 264.707 124.946 266.211C123.873 267.715 122.399 269.824 121.67 270.898C120.941 271.973 119.408 274.17 118.264 275.781C117.119 277.393 113.769 282.182 110.819 286.425L105.455 294.14L106.486 296.175C110.569 304.232 120.174 311.637 130.078 314.362C135.458 315.842 135.645 315.826 137.125 313.737C137.836 312.734 141.253 307.871 144.719 302.93C148.186 297.988 151.638 293.066 152.392 291.992C153.146 290.918 154.991 288.281 156.493 286.133C157.995 283.984 160.958 279.766 163.078 276.758C165.198 273.75 167.726 270.146 168.695 268.75C171.43 264.808 175.052 259.639 178.821 254.297C180.715 251.611 184.787 245.811 187.869 241.406C190.952 237.002 195.092 231.113 197.071 228.32C199.05 225.527 203.001 219.902 205.852 215.82C208.703 211.738 211.277 208.121 211.572 207.782C212.402 206.829 212.249 206.527 210.254 205.177C209.233 204.487 207.52 203.297 206.445 202.533C205.371 201.77 202.822 199.997 200.781 198.594C198.74 197.192 193.73 193.685 189.648 190.803C181.048 184.729 181.833 184.99 180.044 187.602Z" fill="#D83F3F"/>
</g>
<defs>
<clipPath id="clip0_172_52">
<rect width="400" height="400" fill="white"/>
</clipPath>
</defs>
</svg>
