<svg width="35" height="36" viewBox="0 0 35 36" fill="none" xmlns="http://www.w3.org/2000/svg">
<path d="M16.0001 6.6665C8.64008 6.6665 2.66675 12.6398 2.66675 19.9998C2.66675 27.3598 8.64008 33.3332 16.0001 33.3332C23.3601 33.3332 29.3334 27.3598 29.3334 19.9998C29.3334 12.6398 23.3601 6.6665 16.0001 6.6665ZM16.0001 10.6665C18.2134 10.6665 20.0001 12.4532 20.0001 14.6665C20.0001 16.8798 18.2134 18.6665 16.0001 18.6665C13.7867 18.6665 12.0001 16.8798 12.0001 14.6665C12.0001 12.4532 13.7867 10.6665 16.0001 10.6665ZM16.0001 29.5998C12.6667 29.5998 9.72008 27.8932 8.00008 25.3065C8.04008 22.6532 13.3334 21.1998 16.0001 21.1998C18.6534 21.1998 23.9601 22.6532 24.0001 25.3065C22.2801 27.8932 19.3334 29.5998 16.0001 29.5998Z" fill="white"/>
<path d="M33 7H28V2H26V7H21V9H26V14H28V9H33V7Z" fill="white"/>
<path fill-rule="evenodd" clip-rule="evenodd" d="M35 5V11H30V16H24V11H19V5H24V0H30V5H35ZM26 7H21V9H26V14H28V9H33V7H28V2H26V7Z" fill="#1A1A1A"/>
</svg>
