<svg width="60" height="24" viewBox="0 0 60 24" fill="none" xmlns="http://www.w3.org/2000/svg">
<path d="M0 0H60C60 13.2548 49.2548 24 36 24H24C10.7452 24 0 13.2548 0 0Z" fill="white"/>
<g clip-path="url(#clip0_22_12)">
<path d="M38.1299 5.22L39.8999 6.4L29.9999 13L20.0999 6.4L21.8699 5.22L29.9999 10.64L38.1299 5.22Z" fill="#BABABA"/>
</g>
<g clip-path="url(#clip1_22_12)">
<path d="M38.1299 11.22L39.8999 12.4L29.9999 19L20.0999 12.4L21.8699 11.22L29.9999 16.64L38.1299 11.22Z" fill="#797979"/>
</g>
<defs>
<clipPath id="clip0_22_12">
<rect width="8" height="24" fill="white" transform="matrix(0 -1 -1 0 42 13)"/>
</clipPath>
<clipPath id="clip1_22_12">
<rect width="8" height="24" fill="white" transform="matrix(0 -1 -1 0 42 19)"/>
</clipPath>
</defs>
</svg>
