<svg width="220" height="87" viewBox="0 0 220 87" fill="none" xmlns="http://www.w3.org/2000/svg">
<path d="M0 12.8C0 8.31958 0 6.07937 0.871948 4.36808C1.63893 2.86278 2.86278 1.63893 4.36808 0.871948C6.07937 0 8.31958 0 12.8 0H16V2C16 3.25903 16.5928 4.44458 17.6 5.2V5.2C19.0222 6.26667 20.9778 6.26667 22.4 5.2V5.2C23.4072 4.44458 24 3.25903 24 2V0H110H196V2C196 3.25903 196.593 4.44458 197.6 5.2V5.2C199.022 6.26667 200.978 6.26667 202.4 5.2V5.2C203.407 4.44458 204 3.25903 204 2V0H207.2C211.68 0 213.921 0 215.632 0.871948C217.137 1.63893 218.361 2.86278 219.128 4.36808C220 6.07937 220 8.31958 220 12.8V74.2C220 78.6804 220 80.9206 219.128 82.6319C218.361 84.1372 217.137 85.3611 215.632 86.1281C213.921 87 211.68 87 207.2 87H204V85C204 83.741 203.407 82.5554 202.4 81.8V81.8C200.978 80.7333 199.022 80.7333 197.6 81.8V81.8C196.593 82.5554 196 83.741 196 85V87H24V85C24 83.741 23.4072 82.5554 22.4 81.8V81.8C20.9778 80.7333 19.0222 80.7333 17.6 81.8V81.8C16.5928 82.5554 16 83.741 16 85V87H12.8C8.31958 87 6.07937 87 4.36808 86.1281C2.86278 85.3611 1.63893 84.1372 0.871948 82.6319C0 80.9206 0 78.6804 0 74.2V12.8Z" fill="white"/>
<line x1="20" y1="8" x2="20" y2="79" stroke="#BABABA" stroke-dasharray="4 4"/>
<line x1="200" y1="8" x2="200" y2="79" stroke="#BABABA" stroke-dasharray="4 4"/>
</svg>
