<svg width="28" height="28" viewBox="0 0 28 28" fill="none" xmlns="http://www.w3.org/2000/svg">
<path d="M14.0001 0.666504C6.77208 0.666504 0.666748 6.77184 0.666748 13.9998C0.666748 21.2278 6.77208 27.3332 14.0001 27.3332C21.2281 27.3332 27.3334 21.2278 27.3334 13.9998C27.3334 6.77184 21.2281 0.666504 14.0001 0.666504ZM14.0001 7.33317C16.3027 7.33317 18.0001 9.02917 18.0001 11.3332C18.0001 13.6372 16.3027 15.3332 14.0001 15.3332C11.6987 15.3332 10.0001 13.6372 10.0001 11.3332C10.0001 9.02917 11.6987 7.33317 14.0001 7.33317ZM7.19208 20.3625C8.38808 18.6025 10.3827 17.4292 12.6667 17.4292H15.3334C17.6187 17.4292 19.6121 18.6025 20.8081 20.3625C19.1041 22.1865 16.6867 23.3332 14.0001 23.3332C11.3134 23.3332 8.89608 22.1865 7.19208 20.3625Z" fill="white"/>
</svg>
